<mxfile host="app.diagrams.net" modified="2023-08-15T19:03:42.545Z" agent="Mozilla/5.0 (Windows NT 10.0; Win64; x64) AppleWebKit/537.36 (KHTML, like Gecko) Chrome/115.0.0.0 Safari/537.36 OPR/101.0.0.0" etag="NsCgskVk16f-DhgBzLTa" version="21.6.8" type="device">
  <diagram name="PÃ¡gina-1" id="pUlF_pSeaqpCAZhvQ4a7">
    <mxGraphModel dx="1374" dy="735" grid="1" gridSize="10" guides="1" tooltips="1" connect="1" arrows="1" fold="1" page="1" pageScale="1" pageWidth="827" pageHeight="1169" math="0" shadow="0">
      <root>
        <mxCell id="0" />
        <mxCell id="1" parent="0" />
        <mxCell id="SNobX_lGPBWIlyZEadsU-37" style="edgeStyle=orthogonalEdgeStyle;rounded=0;orthogonalLoop=1;jettySize=auto;html=1;entryX=0;entryY=0;entryDx=137.5;entryDy=14;entryPerimeter=0;" parent="1" source="SNobX_lGPBWIlyZEadsU-9" target="SNobX_lGPBWIlyZEadsU-13" edge="1">
          <mxGeometry relative="1" as="geometry" />
        </mxCell>
        <mxCell id="SNobX_lGPBWIlyZEadsU-9" value="" style="shape=folder;fontStyle=1;spacingTop=10;tabWidth=40;tabHeight=14;tabPosition=left;html=1;whiteSpace=wrap;" parent="1" vertex="1">
          <mxGeometry x="100" y="80" width="470" height="200" as="geometry" />
        </mxCell>
        <mxCell id="SNobX_lGPBWIlyZEadsU-1" value="MODEL" style="swimlane;fontStyle=1;align=center;verticalAlign=top;childLayout=stackLayout;horizontal=1;startSize=26;horizontalStack=0;resizeParent=1;resizeParentMax=0;resizeLast=0;collapsible=1;marginBottom=0;whiteSpace=wrap;html=1;" parent="1" vertex="1">
          <mxGeometry x="110" y="150" width="240" height="114" as="geometry" />
        </mxCell>
        <mxCell id="SNobX_lGPBWIlyZEadsU-2" value="- listStudentProgramIII&lt;span style=&quot;background-color: initial;&quot;&gt;:&amp;nbsp;&lt;/span&gt;ArrayList&amp;lt;Student&amp;gt;&lt;br&gt;- student: Student" style="text;strokeColor=none;fillColor=none;align=left;verticalAlign=top;spacingLeft=4;spacingRight=4;overflow=hidden;rotatable=0;points=[[0,0.5],[1,0.5]];portConstraint=eastwest;whiteSpace=wrap;html=1;" parent="SNobX_lGPBWIlyZEadsU-1" vertex="1">
          <mxGeometry y="26" width="240" height="42" as="geometry" />
        </mxCell>
        <mxCell id="SNobX_lGPBWIlyZEadsU-3" value="" style="line;strokeWidth=1;fillColor=none;align=left;verticalAlign=middle;spacingTop=-1;spacingLeft=3;spacingRight=3;rotatable=0;labelPosition=right;points=[];portConstraint=eastwest;strokeColor=inherit;" parent="SNobX_lGPBWIlyZEadsU-1" vertex="1">
          <mxGeometry y="68" width="240" height="8" as="geometry" />
        </mxCell>
        <mxCell id="SNobX_lGPBWIlyZEadsU-4" value="+&amp;nbsp;addStudent&lt;span style=&quot;background-color: initial;&quot;&gt;(Student): void&lt;br&gt;+ deleteStudent(int): void&lt;br&gt;&lt;/span&gt;" style="text;strokeColor=none;fillColor=none;align=left;verticalAlign=top;spacingLeft=4;spacingRight=4;overflow=hidden;rotatable=0;points=[[0,0.5],[1,0.5]];portConstraint=eastwest;whiteSpace=wrap;html=1;" parent="SNobX_lGPBWIlyZEadsU-1" vertex="1">
          <mxGeometry y="76" width="240" height="38" as="geometry" />
        </mxCell>
        <mxCell id="SNobX_lGPBWIlyZEadsU-5" value="STUDENT" style="swimlane;fontStyle=1;align=center;verticalAlign=top;childLayout=stackLayout;horizontal=1;startSize=26;horizontalStack=0;resizeParent=1;resizeParentMax=0;resizeLast=0;collapsible=1;marginBottom=0;whiteSpace=wrap;html=1;" parent="1" vertex="1">
          <mxGeometry x="390" y="148" width="160" height="98" as="geometry" />
        </mxCell>
        <mxCell id="SNobX_lGPBWIlyZEadsU-6" value="- id: int&lt;br&gt;- firstname: string&lt;br&gt;- lastname: string&lt;br&gt;- email: String" style="text;strokeColor=none;fillColor=none;align=left;verticalAlign=top;spacingLeft=4;spacingRight=4;overflow=hidden;rotatable=0;points=[[0,0.5],[1,0.5]];portConstraint=eastwest;whiteSpace=wrap;html=1;" parent="SNobX_lGPBWIlyZEadsU-5" vertex="1">
          <mxGeometry y="26" width="160" height="64" as="geometry" />
        </mxCell>
        <mxCell id="SNobX_lGPBWIlyZEadsU-7" value="" style="line;strokeWidth=1;fillColor=none;align=left;verticalAlign=middle;spacingTop=-1;spacingLeft=3;spacingRight=3;rotatable=0;labelPosition=right;points=[];portConstraint=eastwest;strokeColor=inherit;" parent="SNobX_lGPBWIlyZEadsU-5" vertex="1">
          <mxGeometry y="90" width="160" height="8" as="geometry" />
        </mxCell>
        <mxCell id="SNobX_lGPBWIlyZEadsU-10" value="&lt;font style=&quot;font-size: 10px;&quot;&gt;models&lt;/font&gt;" style="text;html=1;strokeColor=none;fillColor=none;align=center;verticalAlign=middle;whiteSpace=wrap;rounded=0;" parent="1" vertex="1">
          <mxGeometry x="90" y="70" width="60" height="40" as="geometry" />
        </mxCell>
        <mxCell id="SNobX_lGPBWIlyZEadsU-42" style="edgeStyle=orthogonalEdgeStyle;rounded=0;orthogonalLoop=1;jettySize=auto;html=1;entryX=0.5;entryY=0;entryDx=0;entryDy=0;" parent="1" source="SNobX_lGPBWIlyZEadsU-13" target="SNobX_lGPBWIlyZEadsU-38" edge="1">
          <mxGeometry relative="1" as="geometry" />
        </mxCell>
        <mxCell id="SNobX_lGPBWIlyZEadsU-13" value="" style="shape=folder;fontStyle=1;spacingTop=10;tabWidth=40;tabHeight=14;tabPosition=left;html=1;whiteSpace=wrap;" parent="1" vertex="1">
          <mxGeometry x="35" y="410" width="235" height="280" as="geometry" />
        </mxCell>
        <mxCell id="SNobX_lGPBWIlyZEadsU-14" value="PRESENTER" style="swimlane;fontStyle=1;align=center;verticalAlign=top;childLayout=stackLayout;horizontal=1;startSize=26;horizontalStack=0;resizeParent=1;resizeParentMax=0;resizeLast=0;collapsible=1;marginBottom=0;whiteSpace=wrap;html=1;" parent="1" vertex="1">
          <mxGeometry x="60" y="446" width="160" height="212" as="geometry" />
        </mxCell>
        <mxCell id="SNobX_lGPBWIlyZEadsU-15" value="- model: Model&lt;br&gt;- view: View&lt;br&gt;-&amp;nbsp;idStudent: int&lt;br&gt;-&amp;nbsp;firstnameStudent: String&lt;br&gt;-&amp;nbsp;lastnameStudent: String&lt;br&gt;-&amp;nbsp;emailStudent: String" style="text;strokeColor=none;fillColor=none;align=left;verticalAlign=top;spacingLeft=4;spacingRight=4;overflow=hidden;rotatable=0;points=[[0,0.5],[1,0.5]];portConstraint=eastwest;whiteSpace=wrap;html=1;" parent="SNobX_lGPBWIlyZEadsU-14" vertex="1">
          <mxGeometry y="26" width="160" height="94" as="geometry" />
        </mxCell>
        <mxCell id="SNobX_lGPBWIlyZEadsU-16" value="" style="line;strokeWidth=1;fillColor=none;align=left;verticalAlign=middle;spacingTop=-1;spacingLeft=3;spacingRight=3;rotatable=0;labelPosition=right;points=[];portConstraint=eastwest;strokeColor=inherit;" parent="SNobX_lGPBWIlyZEadsU-14" vertex="1">
          <mxGeometry y="120" width="160" height="8" as="geometry" />
        </mxCell>
        <mxCell id="SNobX_lGPBWIlyZEadsU-17" value="+ addStudentList(): void&lt;br&gt;+&amp;nbsp;idStudent(): int&lt;br&gt;+&amp;nbsp;firstnameStudent(): String&lt;br&gt;+&amp;nbsp;lastnameStudent(): String&lt;br&gt;+ emailStudent():String" style="text;strokeColor=none;fillColor=none;align=left;verticalAlign=top;spacingLeft=4;spacingRight=4;overflow=hidden;rotatable=0;points=[[0,0.5],[1,0.5]];portConstraint=eastwest;whiteSpace=wrap;html=1;" parent="SNobX_lGPBWIlyZEadsU-14" vertex="1">
          <mxGeometry y="128" width="160" height="84" as="geometry" />
        </mxCell>
        <mxCell id="SNobX_lGPBWIlyZEadsU-22" value="&lt;font style=&quot;font-size: 10px;&quot;&gt;presenters&lt;/font&gt;" style="text;html=1;strokeColor=none;fillColor=none;align=center;verticalAlign=middle;whiteSpace=wrap;rounded=0;" parent="1" vertex="1">
          <mxGeometry x="30" y="400" width="60" height="40" as="geometry" />
        </mxCell>
        <mxCell id="SNobX_lGPBWIlyZEadsU-36" style="edgeStyle=orthogonalEdgeStyle;rounded=0;orthogonalLoop=1;jettySize=auto;html=1;entryX=0;entryY=0;entryDx=235;entryDy=147;entryPerimeter=0;" parent="1" source="SNobX_lGPBWIlyZEadsU-23" target="SNobX_lGPBWIlyZEadsU-13" edge="1">
          <mxGeometry relative="1" as="geometry" />
        </mxCell>
        <mxCell id="SNobX_lGPBWIlyZEadsU-23" value="" style="shape=folder;fontStyle=1;spacingTop=10;tabWidth=40;tabHeight=14;tabPosition=left;html=1;whiteSpace=wrap;" parent="1" vertex="1">
          <mxGeometry x="440" y="440" width="370" height="460" as="geometry" />
        </mxCell>
        <mxCell id="SNobX_lGPBWIlyZEadsU-24" value="View" style="swimlane;fontStyle=1;align=center;verticalAlign=top;childLayout=stackLayout;horizontal=1;startSize=26;horizontalStack=0;resizeParent=1;resizeParentMax=0;resizeLast=0;collapsible=1;marginBottom=0;whiteSpace=wrap;html=1;" parent="1" vertex="1">
          <mxGeometry x="465" y="470" width="280" height="420" as="geometry" />
        </mxCell>
        <mxCell id="SNobX_lGPBWIlyZEadsU-25" value="+ MAIN_MENU: String&lt;br&gt;+&amp;nbsp;MESSAGE_ID_STUDENT: String&lt;br&gt;+&amp;nbsp;MESSAGE_FIRSTNAME_STUDENT: String&lt;br&gt;+&amp;nbsp;MESSAGE_LASTNAME_STUDENT: String&lt;br&gt;+ MESSAGE_EMAIL_STUDENT: String&lt;br&gt;+&amp;nbsp;INDEX_UPDATE: String&lt;br&gt;+&amp;nbsp;INDEX_DELETE: String&lt;br&gt;+&amp;nbsp;ERROR_INDEX_STUDENTS&lt;span style=&quot;background-color: initial;&quot;&gt;: String&lt;/span&gt;&lt;br&gt;+ UPTDATE: String&lt;br&gt;+ DELETE_INDEX: String&lt;br&gt;+ EXIT: String&lt;br&gt;- scanner: Scanner" style="text;strokeColor=none;fillColor=none;align=left;verticalAlign=top;spacingLeft=4;spacingRight=4;overflow=hidden;rotatable=0;points=[[0,0.5],[1,0.5]];portConstraint=eastwest;whiteSpace=wrap;html=1;" parent="SNobX_lGPBWIlyZEadsU-24" vertex="1">
          <mxGeometry y="26" width="280" height="178" as="geometry" />
        </mxCell>
        <mxCell id="SNobX_lGPBWIlyZEadsU-26" value="" style="line;strokeWidth=1;fillColor=none;align=left;verticalAlign=middle;spacingTop=-1;spacingLeft=3;spacingRight=3;rotatable=0;labelPosition=right;points=[];portConstraint=eastwest;strokeColor=inherit;" parent="SNobX_lGPBWIlyZEadsU-24" vertex="1">
          <mxGeometry y="204" width="280" height="8" as="geometry" />
        </mxCell>
        <mxCell id="SNobX_lGPBWIlyZEadsU-27" value="+ scannerInt(): int&lt;br&gt;+ scannerString(): String&lt;br&gt;+&amp;nbsp;showMenu(): void&lt;br&gt;+&amp;nbsp;showIdStudentMessage(): void&lt;br&gt;+&amp;nbsp;showFirstNameStudentMessage(): void&lt;br&gt;+&amp;nbsp;showLastNameStudentMessage(): void&lt;br&gt;+&amp;nbsp;showEmailStudentMessage(): void&lt;br&gt;+&amp;nbsp;showIndexUpdate(): void&lt;br&gt;+&amp;nbsp;showIndexDelete(): void&lt;br&gt;+&amp;nbsp;showErrorIndexStudent&lt;span style=&quot;background-color: initial;&quot;&gt;(): void&lt;/span&gt;&lt;br&gt;+&amp;nbsp;showUpdate(): void&lt;br&gt;+&amp;nbsp;showDelete(): void&lt;br&gt;+&amp;nbsp; showExit(): void" style="text;strokeColor=none;fillColor=none;align=left;verticalAlign=top;spacingLeft=4;spacingRight=4;overflow=hidden;rotatable=0;points=[[0,0.5],[1,0.5]];portConstraint=eastwest;whiteSpace=wrap;html=1;" parent="SNobX_lGPBWIlyZEadsU-24" vertex="1">
          <mxGeometry y="212" width="280" height="208" as="geometry" />
        </mxCell>
        <mxCell id="SNobX_lGPBWIlyZEadsU-32" value="&lt;span style=&quot;font-size: 10px;&quot;&gt;views&lt;/span&gt;" style="text;html=1;strokeColor=none;fillColor=none;align=center;verticalAlign=middle;whiteSpace=wrap;rounded=0;" parent="1" vertex="1">
          <mxGeometry x="430" y="430" width="60" height="40" as="geometry" />
        </mxCell>
        <mxCell id="SNobX_lGPBWIlyZEadsU-34" style="edgeStyle=orthogonalEdgeStyle;rounded=0;orthogonalLoop=1;jettySize=auto;html=1;entryX=0;entryY=0.5;entryDx=0;entryDy=0;" parent="1" source="SNobX_lGPBWIlyZEadsU-2" target="SNobX_lGPBWIlyZEadsU-5" edge="1">
          <mxGeometry relative="1" as="geometry" />
        </mxCell>
        <mxCell id="SNobX_lGPBWIlyZEadsU-38" value="Main" style="swimlane;fontStyle=1;align=center;verticalAlign=top;childLayout=stackLayout;horizontal=1;startSize=26;horizontalStack=0;resizeParent=1;resizeParentMax=0;resizeLast=0;collapsible=1;marginBottom=0;whiteSpace=wrap;html=1;" parent="1" vertex="1">
          <mxGeometry x="72.5" y="790" width="160" height="34" as="geometry" />
        </mxCell>
        <mxCell id="SNobX_lGPBWIlyZEadsU-40" value="" style="line;strokeWidth=1;fillColor=none;align=left;verticalAlign=middle;spacingTop=-1;spacingLeft=3;spacingRight=3;rotatable=0;labelPosition=right;points=[];portConstraint=eastwest;strokeColor=inherit;" parent="SNobX_lGPBWIlyZEadsU-38" vertex="1">
          <mxGeometry y="26" width="160" height="8" as="geometry" />
        </mxCell>
      </root>
    </mxGraphModel>
  </diagram>
</mxfile>
